HIERARCHY
ROOT Hips
{
	OFFSET 0.00 0.00 0.00
	CHANNELS 6 Xposition Yposition Zposition Xrotation Yrotation Zrotation
	JOINT Spine
	{
		OFFSET 0.00000 5.89385 0.00000
		CHANNELS 3 Xrotation Yrotation Zrotation
		JOINT Head
		{
			OFFSET 0.00000 16.44715 0.00000
			CHANNELS 3 Xrotation Yrotation Zrotation
			End Site
			{
				OFFSET 0.00000 4.52755 0.00000
			}
		}
		JOINT LeftShoulder
		{
			OFFSET 0.00000 10.90038 0.00000
			CHANNELS 3 Xrotation Yrotation Zrotation
			JOINT LeftArm
			{
				OFFSET 8.21946 0.00000 0.00000
				CHANNELS 3 Xrotation Yrotation Zrotation
				JOINT LeftForeArm
				{
					OFFSET 11.09494 0.00000 0.00000
					CHANNELS 3 Yrotation Zrotation Xrotation
					JOINT LeftHand
					{
						OFFSET 9.10388 0.00000 0.00000
						CHANNELS 3 Xrotation Yrotation Zrotation
						JOINT LeftHandThumb1
						{
							OFFSET 0.00000 0.00000 0.00000
							CHANNELS 3 Xrotation Zrotation Yrotation
							End Site
							{
								OFFSET 0.00000 0.00000 3.93700
							}
						}
						End Site
						{
							OFFSET 3.93700 0.00000 0.00000
						}
					}
				}
			}
		}
		JOINT RightShoulder
		{
			OFFSET 0.00000 10.90038 0.00000
			CHANNELS 3 Xrotation Yrotation Zrotation
			JOINT RightArm
			{
				OFFSET -8.21946 0.00000 0.00000
				CHANNELS 3 Xrotation Yrotation Zrotation
				JOINT RightForeArm
				{
					OFFSET -11.09494 0.00000 0.00000
					CHANNELS 3 Yrotation Zrotation Xrotation
					JOINT RightHand
					{
						OFFSET -9.10388 0.00000 0.00000
						CHANNELS 3 Xrotation Yrotation Zrotation
						JOINT RightHandThumb1
						{
							OFFSET 0.00000 0.00000 0.00000
							CHANNELS 3 Xrotation Zrotation Yrotation
							End Site
							{
								OFFSET 0.00000 0.00000 3.93700
							}
						}
						End Site
						{
							OFFSET -3.93700 0.00000 0.00000
						}
					}
				}
			}
		}
	}
	JOINT LeftUpLeg
	{
		OFFSET 3.69794 0.00000 0.00000
		CHANNELS 3 Xrotation Yrotation Zrotation
		JOINT LeftLeg
		{
			OFFSET 0.00000 -16.18147 0.00000
			CHANNELS 3 Xrotation Yrotation Zrotation
			JOINT LeftFoot
			{
				OFFSET 0.00000 -16.50139 0.00000
				CHANNELS 3 Xrotation Yrotation Zrotation
				JOINT LeftToeBase
				{
					OFFSET 0.00000 -1.65857 6.18989
					CHANNELS 3 Xrotation Yrotation Zrotation
					End Site
					{
						OFFSET 0.00000 0.00000 2.95275
					}
				}
			}
		}
	}
	JOINT RightUpLeg
	{
		OFFSET -3.69794 0.00000 0.00000
		CHANNELS 3 Xrotation Yrotation Zrotation
		JOINT RightLeg
		{
			OFFSET 0.00000 -16.18147 0.00000
			CHANNELS 3 Xrotation Yrotation Zrotation
			JOINT RightFoot
			{
				OFFSET 0.00000 -16.50139 0.00000
				CHANNELS 3 Xrotation Yrotation Zrotation
				JOINT RightToeBase
				{
					OFFSET 0.00000 -1.65857 6.18989
					CHANNELS 3 Xrotation Yrotation Zrotation
					End Site
					{
						OFFSET 0.00000 0.00000 2.95275
					}
				}
			}
		}
	}
}
MOTION
Frames: 15
Frame Time: 0.008333
 5.2492 36.4403 5.6899 -168.6328 -67.1715 176.4409 13.1981 4.0111 7.6783 8.8546 11.8197 5.5924 13.2930 10.7637 15.4791 -10.9273 -30.9629 -81.7307 -21.9063 0.0000 27.8457 3.2011 8.5229 -20.6747 33.1476 -0.0000 26.2537 53.9539 -13.1806 15.3902 -49.4270 30.3996 80.4746 13.2739 -0.0000 -39.9590 -0.0360 0.2312 8.8409 32.8623 0.0000 -24.3270 0.0778 39.1923 6.3881 12.1640 0.0000 -0.0000 -20.1083 16.1716 0.6532 6.2844 0.0000 -0.0000 -53.2316 4.9517 -34.8092 152.2145 -0.0000 -0.0000 31.9560 13.2121 7.7919 1.5834 -0.0000 -0.0000
 5.2654 36.4476 5.6793 -168.9952 -66.9874 175.9472 13.1600 3.9718 7.7447 8.6842 11.7035 5.7550 13.2382 10.7727 15.5375 -10.8812 -30.9374 -81.6632 -21.9422 0.0000 27.8959 3.1982 8.5281 -20.6466 33.1476 -0.0000 26.2537 53.9473 -13.1548 15.4109 -49.3410 30.3116 80.4097 13.2939 -0.0000 -39.9581 -0.0447 0.2911 8.7293 32.8623 0.0000 -24.3270 -0.3130 39.2332 6.6648 12.3231 -0.0000 0.0000 -20.1689 16.2857 0.7765 6.1779 -0.0000 0.0000 -53.1104 4.8728 -34.9067 152.1440 0.0000 0.0000 31.9224 13.2125 7.8305 1.1820 -0.0000 -0.0000
 5.2790 36.4509 5.6685 -169.5379 -66.9302 175.4304 13.0422 3.8037 7.6344 8.5027 11.5817 6.0168 13.2149 10.7928 15.6557 -10.8505 -30.9525 -81.5716 -21.9973 0.0000 27.9463 3.2909 8.8300 -20.5354 33.1476 -0.0000 26.2537 54.0269 -13.1101 15.5519 -49.3101 30.2631 80.3429 13.3004 -0.0000 -40.0541 -0.0412 0.2727 8.5962 32.8623 0.0000 -24.3270 -0.6562 39.1038 6.7502 12.4869 -0.0000 0.0000 -20.1965 16.4290 0.8431 6.1166 -0.0000 0.0000 -53.0031 4.8594 -35.2636 152.0812 0.0000 -0.0000 31.9557 13.2536 7.6758 1.6022 -0.0000 -0.0000
 5.2948 36.4575 5.6609 -169.9258 -66.7596 174.9534 12.9995 3.7363 7.6629 8.3439 11.4806 6.1553 13.1874 10.8140 15.7127 -10.8354 -30.9155 -81.5163 -22.0140 0.0000 27.8812 3.2794 8.7982 -20.5368 33.1476 -0.0000 26.2537 54.0677 -13.1067 15.6125 -49.2917 30.2261 80.2794 13.2850 -0.0000 -40.0360 -0.0357 0.2293 8.8456 32.8623 0.0000 -24.3270 -1.0233 39.1129 6.9738 12.6440 0.0000 0.0000 -20.2413 16.5384 0.9215 6.0575 -0.0000 -0.0000 -52.8427 4.8302 -35.4310 152.0267 -0.0000 -0.0000 31.7610 13.3553 7.4660 2.0173 -0.0000 -0.0000
 5.3104 36.4658 5.6526 -170.2505 -66.5547 174.4835 12.9763 3.7316 7.7491 8.1952 11.3705 6.2814 13.1320 10.7933 15.7545 -10.7924 -30.8576 -81.4645 -22.0041 0.0000 27.9260 3.2961 8.8474 -20.5280 33.1476 -0.0000 26.2537 54.1186 -13.1019 15.6703 -49.2841 30.1141 80.2062 13.2799 -0.0000 -39.9758 -0.0333 0.2150 8.8153 32.8623 0.0000 -24.3270 -1.4150 39.2104 7.2749 12.7931 0.0000 0.0000 -20.2933 16.5992 0.9949 5.9798 -0.0000 0.0000 -52.6822 4.7597 -35.5324 151.9388 0.0000 0.0000 31.7270 13.4334 7.5594 1.9848 -0.0000 0.0000
 5.3232 36.4743 5.6445 -170.5551 -66.3586 174.0304 12.9529 3.7325 7.8435 8.0552 11.2277 6.4002 13.1328 10.7639 15.7861 -10.7668 -30.8240 -81.4071 -22.0150 0.0000 27.8611 3.2616 8.7339 -20.5710 33.1476 -0.0000 26.2537 54.1134 -13.1109 15.6923 -49.1673 30.0147 80.1080 13.3103 -0.0000 -40.0047 -0.0214 0.1369 8.8953 32.8623 0.0000 -24.3270 -1.7870 39.3061 7.5713 12.9245 0.0000 -0.0000 -20.3472 16.6601 1.0611 5.9693 -0.0000 -0.0000 -52.5326 4.6471 -35.6698 151.8593 -0.0000 -0.0000 31.7177 13.4071 7.5088 1.7003 0.0000 0.0000
 5.3327 36.4825 5.6351 -171.0338 -66.2212 173.4459 12.8282 3.6365 7.9093 8.0010 11.1054 6.5545 13.1125 10.7279 15.8422 -10.6821 -30.8131 -81.3568 -21.9985 0.0000 27.7336 3.2321 8.6533 -20.5726 33.1476 -0.0000 26.2537 54.2194 -13.1099 15.7761 -49.1651 29.9154 80.0399 13.2827 -0.0000 -39.9338 -0.0305 0.1938 8.9350 32.8623 0.0000 -24.3270 -2.1739 39.2890 7.8088 13.0255 -0.0000 0.0000 -20.3867 16.7637 1.1109 5.9196 -0.0000 0.0000 -52.3956 4.5401 -35.9194 151.7826 -0.0000 -0.0000 31.6738 13.3562 7.5121 1.8513 -0.0000 -0.0000
 5.3433 36.4903 5.6275 -171.3882 -66.0459 172.9975 12.7709 3.5884 7.9367 7.9236 10.9348 6.7226 13.1048 10.6968 15.8912 -10.6143 -30.9215 -81.2774 -21.9429 0.0000 27.6217 3.2330 8.6804 -20.5197 33.1476 -0.0000 26.2537 54.2516 -13.1195 15.8082 -49.0893 29.8240 79.9901 13.2854 -0.0000 -39.9650 -0.0285 0.1829 8.8716 32.8623 0.0000 -24.3270 -2.4799 39.2944 8.0013 13.1064 -0.0000 0.0000 -20.4074 16.8878 1.1806 5.8252 0.0000 -0.0000 -52.2396 4.4731 -36.1465 151.7230 0.0000 0.0000 31.6410 13.2759 7.5286 1.8495 -0.0000 -0.0000
 5.3543 36.4989 5.6208 -171.6347 -65.8048 172.6086 12.7646 3.6229 8.0130 7.8119 10.7785 6.8391 13.1033 10.6794 15.9230 -10.5939 -30.7732 -81.2745 -21.9996 0.0000 27.8202 3.2132 8.5956 -20.5874 33.1476 -0.0000 26.2537 54.2810 -13.1657 15.8330 -49.0283 29.8069 79.9494 13.2864 -0.0000 -39.9942 -0.0316 0.2037 8.8325 32.8623 0.0000 -24.3270 -2.7688 39.3663 8.2371 13.1671 -0.0000 0.0000 -20.4437 17.0308 1.2924 5.8055 -0.0000 -0.0000 -52.0482 4.4273 -36.2800 151.6583 -0.0000 -0.0000 31.6124 13.2199 7.6556 1.8730 -0.0000 0.0000
 5.3639 36.5040 5.6153 -171.7120 -65.5544 172.4561 12.8681 3.6504 7.9564 7.6289 10.6029 7.0494 13.0817 10.7127 15.9908 -10.5897 -30.7551 -81.2532 -22.0504 0.0000 27.8774 3.2304 8.6490 -20.5718 33.1476 -0.0000 26.2537 54.2646 -13.1853 15.8547 -48.9506 29.7227 79.9347 13.3220 -0.0000 -40.0329 -0.0264 0.1713 8.7603 32.8623 0.0000 -24.3270 -2.9146 39.4649 8.3588 13.2183 0.0000 -0.0000 -20.4679 17.1649 1.4060 5.7747 -0.0000 0.0000 -51.8164 4.4527 -36.4787 151.6264 -0.0000 0.0000 31.6407 13.1901 7.5364 1.7079 0.0000 -0.0000
 5.3745 36.5115 5.6104 -171.8598 -65.2758 172.2014 12.9203 3.7218 7.9647 7.4900 10.4133 7.1972 13.0626 10.7170 16.0062 -10.5517 -30.8000 -81.1851 -22.0548 0.0000 27.8333 3.2595 8.6719 -20.6924 33.1476 -0.0000 26.2537 54.2607 -13.2301 15.8724 -48.8710 29.6423 79.9099 13.3212 -0.0000 -40.0849 -0.0214 0.1372 8.8531 32.8623 0.0000 -24.3270 -3.1219 39.5589 8.5299 13.2697 -0.0000 0.0000 -20.4926 17.3238 1.4963 5.7439 0.0000 -0.0000 -51.6073 4.4677 -36.6339 151.5840 -0.0000 -0.0000 31.6737 13.1997 7.5366 1.6605 -0.0000 0.0000
 5.3846 36.5200 5.6032 -172.0370 -64.9995 171.8882 12.9351 3.7623 8.0040 7.4317 10.2190 7.3340 13.0573 10.6974 16.0372 -10.4840 -30.7938 -81.1607 -22.0414 0.0000 27.9279 3.2130 8.5307 -20.7284 33.1476 -0.0000 26.2537 54.3482 -13.2341 15.8869 -48.8623 29.5497 79.8887 13.3390 -0.0000 -40.1158 -0.0257 0.1647 8.8754 32.8623 0.0000 -24.3270 -3.3789 39.6291 8.7549 13.3407 0.0000 -0.0000 -20.5405 17.4857 1.5764 5.7573 0.0000 0.0000 -51.4451 4.4053 -36.7584 151.5437 -0.0000 -0.0000 31.6844 13.1411 7.4479 1.6862 -0.0000 -0.0000
 5.3962 36.5301 5.5966 -172.1471 -64.7048 171.6306 12.9940 3.8360 8.0429 7.3357 10.0602 7.4761 13.0810 10.7058 16.0415 -10.4710 -30.7752 -81.1221 -22.0449 0.0000 27.9103 3.2046 8.4649 -20.8245 33.1476 -0.0000 26.2537 54.3587 -13.2467 15.9076 -48.7748 29.4536 79.8445 13.3937 -0.0000 -40.1458 -0.0220 0.1413 8.8347 32.8623 0.0000 -24.3270 -3.6195 39.7359 8.9924 13.4021 0.0000 0.0000 -20.5661 17.6383 1.6595 5.7694 0.0000 -0.0000 -51.2396 4.3757 -36.8697 151.5012 -0.0000 -0.0000 31.7201 13.1982 7.4255 1.6750 -0.0000 -0.0000
 5.4080 36.5415 5.5895 -172.3205 -64.4043 171.2768 13.0138 3.9000 8.1436 7.2980 9.8252 7.5348 13.0924 10.7299 16.0074 -10.4053 -30.8930 -81.0619 -22.0258 0.0000 27.7928 3.1799 8.4451 -20.7214 33.1476 -0.0000 26.2537 54.4558 -13.2621 15.9550 -48.8013 29.3243 79.8146 13.4055 -0.0000 -40.1582 -0.0289 0.1835 8.9426 32.8623 0.0000 -24.3270 -3.9329 39.8474 9.2948 13.4816 -0.0000 0.0000 -20.6082 17.7656 1.7136 5.8145 -0.0000 -0.0000 -51.0807 4.2899 -36.9476 151.4486 0.0000 0.0000 31.7693 13.2582 7.3843 1.5495 -0.0000 -0.0000
 5.4174 36.5525 5.5816 -172.4566 -64.0823 170.9772 13.0355 3.9696 8.2016 7.2695 9.6099 7.6529 13.1068 10.7259 16.0063 -10.3634 -30.7999 -81.0469 -21.9930 0.0000 27.6528 3.2190 8.4665 -20.9066 33.1476 -0.0000 26.2537 54.4692 -13.2460 15.9554 -48.6944 29.1945 79.7488 13.4637 -0.0000 -40.2065 -0.0283 0.1801 8.9345 32.8623 0.0000 -24.3270 -4.2063 39.9898 9.5697 13.5436 -0.0000 0.0000 -20.6341 17.8926 1.7461 5.8416 -0.0000 -0.0000 -50.9210 4.2215 -37.0504 151.4115 -0.0000 0.0000 31.7997 13.2696 7.3184 1.6065 -0.0000 -0.0000
